<svg xmlns="http://www.w3.org/2000/svg" version="1.1" viewBox="90.64255319148936 317.25399999999996 917.0893617021276 594.518" style="max-height: 500px" width="917.0893617021276" height="594.518">
<path transform="translate(644,472)" fill="#FFFFFF" d="M0 0 C20.46 0 40.92 0 62 0 C62 33.99 62 67.98 62 103 C89.06 103 116.12 103 144 103 C144 84.19 144 65.38 144 46 C185.25 46 226.5 46 269 46 C269.33 56.89 269.66 67.78 270 79 C265.05 80.98 260.1 82.96 255 85 C252.06290445 86.36902635 249.21954392 87.7235184 246.375 89.25 C245.31599487 89.81678467 245.31599487 89.81678467 244.2355957 90.39501953 C237.248861 94.24470798 231.05351665 98.82565692 225 104 C224.48598633 104.43570313 223.97197266 104.87140625 223.44238281 105.3203125 C197.18054735 127.81636191 180.7799471 159.65508263 177 194 C176.7219995 198.75437585 176.66557844 203.48825628 176.6875 208.25 C176.69487183 210.15797363 176.69487183 210.15797363 176.70239258 212.10449219 C176.82221813 221.75198535 177.61985956 230.64128778 180 240 C180.17692383 240.6997998 180.35384766 241.39959961 180.53613281 242.12060547 C185.87653298 262.78583273 194.89777288 280.95008766 209 297 C209.69609375 297.82886719 210.3921875 298.65773438 211.109375 299.51171875 C226.79201808 317.74136043 246.89732146 329.15892859 269 338 C269 350.87 269 363.74 269 377 C248.88457172 377.36186963 228.77179757 377.65629509 208.65393543 377.82899475 C199.31180212 377.91133141 189.97184154 378.02346994 180.63110352 378.20703125 C172.48481754 378.36704257 164.34010528 378.46985246 156.19229144 378.50541592 C151.88122917 378.52619331 147.57466651 378.57461308 143.2650547 378.69168091 C114.93830507 379.43206095 114.93830507 379.43206095 108.06088257 373.49194336 C105.09962702 370.23943319 102.91316451 366.77466431 100.96193027 362.8443079 C99.68189919 360.39010564 98.00564555 358.45443536 96.125 356.4375 C95.59608154 355.84525635 95.06716309 355.2530127 94.5222168 354.64282227 C71.85974117 330.18479524 38.16182595 313.4418952 4.62939453 311.83886719 C0.79448104 311.79281181 -3.03982185 311.75333651 -6.875 311.75 C-7.56974426 311.74932526 -8.26448853 311.74865051 -8.98028564 311.74795532 C-19.62508784 311.76438296 -29.64655055 312.32293986 -40 315 C-40.68626465 315.17160645 -41.3725293 315.34321289 -42.07958984 315.52001953 C-76.84706956 324.35198543 -105.80366194 345.47316227 -126 375 C-126.33 375.66 -126.66 376.32 -127 377 C-174.85 377 -222.7 377 -272 377 C-272 363.8 -272 350.6 -272 337 C-265.73 336.34 -259.46 335.68 -253 335 C-248.41008714 333.82205776 -244.35161407 332.69760769 -240 331 C-239.1440625 330.67515625 -238.288125 330.3503125 -237.40625 330.015625 C-224.83605141 324.52610789 -215.07778724 313.48148075 -209.7265625 301.0390625 C-203.09485573 283.49561126 -204.9905188 265.84062744 -212.5625 248.875 C-220.23438061 234.40084741 -234.24135608 223.17457046 -249.7578125 218.09765625 C-252.49591972 217.33113877 -255.2291282 216.6382967 -258 216 C-259.26199219 215.67 -260.52398437 215.34 -261.82421875 215 C-268.12821947 213.60861465 -274.55411571 213.31370834 -280.97747803 212.85412598 C-297.87560874 211.61512034 -314.38896502 209.42517083 -331 206 C-332.15032715 205.7632959 -333.3006543 205.5265918 -334.48583984 205.28271484 C-369.03210482 197.96993135 -402.80472113 186.21916036 -433.77734375 169.21875 C-435.92826515 168.0393344 -438.08823294 166.87813345 -440.25 165.71875 C-448.71671956 161.12627237 -456.54731146 155.9940101 -464.27783203 150.25732422 C-466.00724366 148.99471153 -467.76035384 147.77575852 -469.52734375 146.56640625 C-477.45160344 141.11738441 -484.48898656 135.13280682 -491.4296875 128.48486328 C-492.96266104 127.03530715 -494.52020362 125.62015246 -496.09375 124.21484375 C-506.68422738 114.75263735 -515.88752446 104.70661027 -524 93 C-524.65226563 92.09765625 -525.30453125 91.1953125 -525.9765625 90.265625 C-526.60304688 89.39421875 -527.22953125 88.5228125 -527.875 87.625 C-528.42929687 86.85414063 -528.98359375 86.08328125 -529.5546875 85.2890625 C-531 83 -531 83 -533 78 C-447.2 77.67 -361.4 77.34 -273 77 C-272.67 66.77 -272.34 56.54 -272 46 C-182.24 46 -92.48 46 0 46 C0 30.82 0 15.64 0 0 Z M-1 103 C-1.020625 113.209375 -1.04125 123.41875 -1.0625 133.9375 C-1.071604 137.16523193 -1.08070801 140.39296387 -1.09008789 143.71850586 C-1.09300676 146.2589514 -1.09555539 148.7993974 -1.09765625 151.33984375 C-1.10026962 152.00407852 -1.102883 152.66831329 -1.10557556 153.35267639 C-1.11285688 155.30012857 -1.1133384 157.24760258 -1.11352539 159.19506836 C-1.115746 160.29427109 -1.11796661 161.39347382 -1.12025452 162.52598572 C-1.28046633 164.9435147 -1.28046633 164.9435147 0 166 C1.93306498 166.09396057 3.86958838 166.11743517 5.80493164 166.11352539 C7.06358032 166.11340454 8.322229 166.11328369 9.61901855 166.11315918 C10.96606495 166.10812272 12.31311087 166.10295608 13.66015625 166.09765625 C14.87795776 166.09664917 16.09575928 166.09564209 17.35046387 166.09460449 C21.92115209 166.08935295 26.49182694 166.07539185 31.0625 166.0625 C46.3765625 166.0315625 46.3765625 166.0315625 62 166 C62 145.21 62 124.42 62 103 C41.21 103 20.42 103 -1 103 Z"/>
<path transform="translate(730,389)" fill="#FFFFFF" d="M0 0 C13.509375 -0.020625 27.01875 -0.04125 40.9375 -0.0625 C47.34530884 -0.07615601 47.34530884 -0.07615601 53.88256836 -0.09008789 C59.08312988 -0.09460449 59.08312988 -0.09460449 61.5146637 -0.09544373 C63.2196224 -0.09698331 64.92457999 -0.10050854 66.62953186 -0.10557556 C69.20608422 -0.11285276 71.78256982 -0.11390743 74.35913086 -0.11352539 C75.12373847 -0.1171235 75.88834608 -0.12072161 76.67612362 -0.12442875 C81.88597366 -0.11402634 81.88597366 -0.11402634 83 1 C83.10035816 3.52002451 83.13617712 6.012662 83.12939453 8.53320312 C83.13202301 9.71607155 83.13202301 9.71607155 83.13470459 10.9228363 C83.13912358 13.5423296 83.13618496 16.16175596 83.1328125 18.78125 C83.13348553 20.5934653 83.13445554 22.40568052 83.13571167 24.21789551 C83.13718871 28.02108619 83.1350339 31.82425344 83.13037109 35.62744141 C83.1246738 40.51378495 83.12795278 45.40007357 83.13394356 50.2864151 C83.13754901 54.03005389 83.13641066 57.77367955 83.13381577 61.51731873 C83.13314645 63.31953437 83.13397507 65.12175118 83.13629532 66.92396545 C83.13882159 69.43827491 83.13498162 71.95249417 83.12939453 74.46679688 C83.13141876 75.21904037 83.13344299 75.97128387 83.13552856 76.74632263 C83.1142626 81.8857374 83.1142626 81.8857374 82 83 C79.44406185 83.09506198 76.91535694 83.12555454 74.35913086 83.11352539 C73.5462111 83.11364593 72.73329134 83.11376646 71.89573765 83.11389065 C69.25207896 83.11314147 66.6084899 83.10551303 63.96484375 83.09765625 C62.33760614 83.09618685 60.71036806 83.09516613 59.08312988 83.09460449 C53.0345794 83.08935143 46.98603903 83.07539035 40.9375 83.0625 C27.428125 83.041875 13.91875 83.02125 0 83 C0 55.61 0 28.22 0 0 Z"/>
<path transform="translate(838,430)" fill="#FFFFFF" d="M0 0 C8.19690561 -0.0231271 16.39379768 -0.04091696 24.59072781 -0.05181217 C28.39651577 -0.0570402 32.20228148 -0.06413638 36.00805664 -0.07543945 C39.67792544 -0.0862712 43.34777278 -0.09227744 47.01765633 -0.09487724 C48.42074992 -0.09673097 49.82384229 -0.1003506 51.2269268 -0.10573006 C53.1856968 -0.11294419 55.1444882 -0.11340809 57.10327148 -0.11352539 C58.22023911 -0.115746 59.33720673 -0.11796661 60.48802185 -0.12025452 C63 0 63 0 64 1 C64.09920863 2.92761817 64.12799365 4.85889354 64.12939453 6.7890625 C64.13254669 8.0270459 64.13569885 9.2650293 64.13894653 10.54052734 C64.13715675 11.90201859 64.1351058 13.26350951 64.1328125 14.625 C64.13348559 16.01123064 64.13445566 17.39746117 64.13571167 18.78369141 C64.1371884 21.69239422 64.1350349 24.60106637 64.13037109 27.50976562 C64.12467381 31.24596598 64.12795294 34.98209452 64.13394356 38.71829224 C64.13754985 41.58179266 64.13641027 44.44527593 64.13381577 47.30877686 C64.13314668 48.68674732 64.13397426 50.06471932 64.13629532 51.44268799 C64.13882292 53.36543754 64.13429024 55.28819252 64.12939453 57.2109375 C64.12859894 58.30712402 64.12780334 59.40331055 64.12698364 60.53271484 C64 63 64 63 63 64 C61.07238183 64.09920863 59.14110646 64.12799365 57.2109375 64.12939453 C55.9729541 64.13254669 54.7349707 64.13569885 53.45947266 64.13894653 C52.09798141 64.13715675 50.73649049 64.1351058 49.375 64.1328125 C47.98876936 64.13348559 46.60253883 64.13445566 45.21630859 64.13571167 C42.30760578 64.1371884 39.39893363 64.1350349 36.49023438 64.13037109 C32.75403402 64.12467381 29.01790548 64.12795294 25.28170776 64.13394356 C22.41820734 64.13754985 19.55472407 64.13641027 16.69122314 64.13381577 C15.31325268 64.13314668 13.93528068 64.13397426 12.55731201 64.13629532 C10.63456246 64.13882292 8.71180748 64.13429024 6.7890625 64.12939453 C5.14478271 64.12820114 5.14478271 64.12820114 3.46728516 64.12698364 C1 64 1 64 0 63 C-0.0940067 61.03630847 -0.11743381 59.06920801 -0.11352539 57.10327148 C-0.11344986 55.84203964 -0.11337433 54.5808078 -0.11329651 53.28135681 C-0.1081891 51.89460206 -0.10297309 50.50784771 -0.09765625 49.12109375 C-0.09579201 47.71004791 -0.09436814 46.29900143 -0.09336853 44.88795471 C-0.08954379 41.16759465 -0.0797139 37.4472734 -0.06866455 33.72692871 C-0.05844948 29.93319219 -0.05387071 26.13944942 -0.04882812 22.34570312 C-0.03809158 14.89711769 -0.0210157 7.44856428 0 0 Z"/>
<path transform="translate(913,363)" fill="#FFFFFF" d="M0 0 C16.17 0 32.34 0 49 0 C49 16.17 49 32.34 49 49 C32.83 49 16.66 49 0 49 C0 32.83 0 16.66 0 0 Z"/>
<path transform="translate(72,984)" fill="#FFFFFF" d="M0 0 C5.7617063 -0.04989487 11.52328342 -0.08595113 17.28515625 -0.10986328 C19.2402567 -0.11984485 21.19534252 -0.13343487 23.15039062 -0.15087891 C43.98342367 -0.3319431 43.98342367 -0.3319431 54 2 C54 2.33 54 2.66 54 3 C51.58343806 3.16831775 49.16676951 3.33471262 46.75 3.5 C46.06808594 3.54769531 45.38617188 3.59539063 44.68359375 3.64453125 C39.65813547 3.98606725 35.34322121 4.17642816 30.5 2.75 C28.16666519 2.12859766 28.16666519 2.12859766 26 2 C24.6256709 3.29103643 23.29103643 4.6256709 22 6 C19.12288412 5.86299448 16.76816378 5.59716436 14 5 C12.7934375 4.814375 12.7934375 4.814375 11.5625 4.625 C7.62785713 3.66533101 3.82475718 2.32491589 0 1 C0 0.67 0 0.34 0 0 Z"/>
<path transform="translate(74,985)" fill="#FFFFFF" d="M0 0 C7.59 0 15.18 0 23 0 C22.67 1.32 22.34 2.64 22 4 C15.20107911 6.26630696 6.67525169 2.96330932 0 1 C0 0.67 0 0.34 0 0 Z"/>
<path transform="translate(51,984)" fill="#FFFFFF" d="M0 0 C6.6 0 13.2 0 20 0 C19.34 1.32 18.68 2.64 18 4 C11.74892565 3.57045059 5.95795479 2.98598493 0 1 C0 0.67 0 0.34 0 0 Z"/>
<path transform="translate(220,984)" fill="#FFFFFF" d="M0 0 C3.96 0 7.92 0 12 0 C11.67 0.66 11.34 1.32 11 2 C6.39790775 2.17700355 4.21629134 2.10814567 0 0 Z"/>
<path transform="translate(98,985)" fill="#FFFFFF" d="M0 0 C3.3 0 6.6 0 10 0 C9.67 0.99 9.34 1.98 9 3 C4.545 2.01 4.545 2.01 0 1 C0 0.67 0 0.34 0 0 Z"/>
<path transform="translate(289,984)" fill="#FFFFFF" d="M0 0 C2.97 0 5.94 0 9 0 C7.515 1.485 7.515 1.485 6 3 C4.02 2.34 2.04 1.68 0 1 C0 0.67 0 0.34 0 0 Z"/>
<path transform="translate(39,984)" fill="#FFFFFF" d="M0 0 C3.3 0 6.6 0 10 0 C9.67 0.66 9.34 1.32 9 2 C6.03 1.67 3.06 1.34 0 1 C0 0.67 0 0.34 0 0 Z"/>
<path transform="translate(240,984)" fill="#FFFFFF" d="M0 0 C3 1 3 1 3 1 Z"/>
<path transform="translate(127,987)" fill="#FFFFFF" d="M0 0 C2 1 2 1 2 1 Z"/>
<path transform="translate(318,984)" fill="#FFFFFF" d="M0 0 C2 1 2 1 2 1 Z"/>
<path transform="translate(307,984)" fill="#FFFFFF" d="M0 0 C2 1 2 1 2 1 Z"/>
<path transform="translate(215,984)" fill="#FFFFFF" d="M0 0 C2 1 2 1 2 1 Z"/>
<path transform="translate(0,0)" fill="#FFFFFF" d=""/>
<path transform="translate(0,0)" fill="#FFFFFF" d=""/>
</svg>